<svg xmlns="http://www.w3.org/2000/svg" viewBox="0 0 32.47 34.27">
    <g id="Calque_2" data-name="Calque 2">
        <g id="Calque_1-2" data-name="Calque 1">
            <path d="M32,14h-8C23.9,6.11,20.69,0,16.62,0S9.34,6.11,9.17,14H.43a.43.43,0,0,0-.42.52L4.27,33.93a.43.43,0,0,0,.42.34H27.76a.43.43,0,0,0,.42-.34l4.28-19.38A.42.42,0,0,0,32,14ZM16.62,1.29c3.25,0,6,5.77,6.16,12.74H10.46C10.62,7.06,13.37,1.29,16.62,1.29ZM27.14,32.64a.43.43,0,0,1-.42.34h-21a.43.43,0,0,1-.42-.34L1.61,15.84A.43.43,0,0,1,2,15.32H30.42a.42.42,0,0,1,.42.52Z" />
        </g>
    </g>
</svg>