<svg xmlns="http://www.w3.org/2000/svg" viewBox="0 0 32.6 40.15"><defs><style>.cls-1{fill:#993300;}</style></defs><g id="Calque_2" data-name="Calque 2"><g id="Calque_1-2" data-name="Calque 1"><g id="_6XfrO6.tif" data-name="6XfrO6.tif"><path class="cls-1" d="M17,0l.41.12a3.47,3.47,0,0,1,2.63,3.31c0,.52,0,1,0,1.6H30.23A2.16,2.16,0,0,1,32.6,7.42a5,5,0,0,1,0,.78A2.11,2.11,0,0,1,30.41,10h-28A2.17,2.17,0,0,1,0,7.61a4.51,4.51,0,0,1,0-.82A2.12,2.12,0,0,1,2.22,5H12.55c0-.57,0-1.11,0-1.66a3.31,3.31,0,0,1,.86-2.17,3.34,3.34,0,0,1,2-1.12L15.6,0Z"/><path class="cls-1" d="M30.05,12.57c0,.21,0,.41,0,.6q0,10.65,0,21.29a5.64,5.64,0,0,1-5.61,5.67q-8.18,0-16.35,0A5.62,5.62,0,0,1,2.52,34.5c0-7.14,0-14.28,0-21.41a5.05,5.05,0,0,1,.05-.52ZM22.57,26.34v4.43c0,1,0,2,0,3a1.34,1.34,0,0,0,1.17,1.36A1.3,1.3,0,0,0,25.07,34a2.07,2.07,0,0,0,0-.43V21.23c0-.78,0-1.57,0-2.35a1.26,1.26,0,1,0-2.52,0c0,.1,0,.21,0,.31Zm-5,0v-5.1c0-.78,0-1.57,0-2.35a1.33,1.33,0,0,0-1.18-1.34,1.31,1.31,0,0,0-1.32,1.15,2,2,0,0,0,0,.43V33.56a2,2,0,0,0,0,.35,1.34,1.34,0,0,0,1.21,1.23A1.31,1.31,0,0,0,17.54,34a2.08,2.08,0,0,0,0-.43Zm-10.06,0v4c0,1.15,0,2.3,0,3.45a1.33,1.33,0,0,0,1.17,1.35A1.32,1.32,0,0,0,10,34a2.55,2.55,0,0,0,0-.39V19.22a3.7,3.7,0,0,0,0-.47,1.32,1.32,0,0,0-1.2-1.19,1.3,1.3,0,0,0-1.28,1.1,2.19,2.19,0,0,0,0,.51Z"/></g></g></g></svg>